solid OpenSCAD_Model
  facet normal -1 0 0
    outer loop
      vertex -10 5 -5
      vertex -10 4.25 -4.25
      vertex -10 5 5
    endloop
  endfacet
  facet normal -1 0 0
    outer loop
      vertex -10 5 -5
      vertex -10 -4.25 -4.25
      vertex -10 4.25 -4.25
    endloop
  endfacet
  facet normal -1 -0 0
    outer loop
      vertex -10 -4.25 -4.25
      vertex -10 -5 -5
      vertex -10 -4.25 4.25
    endloop
  endfacet
  facet normal -1 0 0
    outer loop
      vertex -10 -5 -5
      vertex -10 -4.25 -4.25
      vertex -10 5 -5
    endloop
  endfacet
  facet normal -1 0 0
    outer loop
      vertex -10 4.25 4.25
      vertex -10 5 5
      vertex -10 4.25 -4.25
    endloop
  endfacet
  facet normal -1 0 0
    outer loop
      vertex -10 -4.25 4.25
      vertex -10 5 5
      vertex -10 4.25 4.25
    endloop
  endfacet
  facet normal -1 0 0
    outer loop
      vertex -10 -4.25 4.25
      vertex -10 -5 5
      vertex -10 5 5
    endloop
  endfacet
  facet normal -1 0 0
    outer loop
      vertex -10 -5 5
      vertex -10 -4.25 4.25
      vertex -10 -5 -5
    endloop
  endfacet
  facet normal -0 0 1
    outer loop
      vertex -10 5 5
      vertex 10 -5 5
      vertex 10 5 5
    endloop
  endfacet
  facet normal 0 0 1
    outer loop
      vertex 10 -5 5
      vertex -10 5 5
      vertex -10 -5 5
    endloop
  endfacet
  facet normal 1 0 0
    outer loop
      vertex 10 5 5
      vertex 10 4.25 4.25
      vertex 10 5 -5
    endloop
  endfacet
  facet normal 1 0 0
    outer loop
      vertex 10 5 5
      vertex 10 -4.25 4.25
      vertex 10 4.25 4.25
    endloop
  endfacet
  facet normal 1 0 0
    outer loop
      vertex 10 -4.25 4.25
      vertex 10 -5 5
      vertex 10 -4.25 -4.25
    endloop
  endfacet
  facet normal 1 -0 0
    outer loop
      vertex 10 -5 5
      vertex 10 -4.25 4.25
      vertex 10 5 5
    endloop
  endfacet
  facet normal 1 -0 0
    outer loop
      vertex 10 4.25 -4.25
      vertex 10 5 -5
      vertex 10 4.25 4.25
    endloop
  endfacet
  facet normal 1 -0 0
    outer loop
      vertex 10 -4.25 -4.25
      vertex 10 5 -5
      vertex 10 4.25 -4.25
    endloop
  endfacet
  facet normal 1 0 0
    outer loop
      vertex 10 -4.25 -4.25
      vertex 10 -5 -5
      vertex 10 5 -5
    endloop
  endfacet
  facet normal 1 0 0
    outer loop
      vertex 10 -5 -5
      vertex 10 -4.25 -4.25
      vertex 10 -5 5
    endloop
  endfacet
  facet normal 0 1 -0
    outer loop
      vertex 10 5 -5
      vertex -10 5 5
      vertex 10 5 5
    endloop
  endfacet
  facet normal 0 1 0
    outer loop
      vertex -10 5 5
      vertex 10 5 -5
      vertex -10 5 -5
    endloop
  endfacet
  facet normal 0 0 -1
    outer loop
      vertex -10 -5 -5
      vertex 10 5 -5
      vertex 10 -5 -5
    endloop
  endfacet
  facet normal -0 0 -1
    outer loop
      vertex 10 5 -5
      vertex -10 -5 -5
      vertex -10 5 -5
    endloop
  endfacet
  facet normal 0 -1 0
    outer loop
      vertex -10 -5 -5
      vertex 10 -5 5
      vertex -10 -5 5
    endloop
  endfacet
  facet normal 0 -1 -0
    outer loop
      vertex 10 -5 5
      vertex -10 -5 -5
      vertex 10 -5 -5
    endloop
  endfacet
  facet normal 0 0 -1
    outer loop
      vertex -10 -4.25 4.25
      vertex 9.5 4.25 4.25
      vertex 9.5 -4.25 4.25
    endloop
  endfacet
  facet normal -0 0 -1
    outer loop
      vertex 9.5 4.25 4.25
      vertex -10 -4.25 4.25
      vertex -10 4.25 4.25
    endloop
  endfacet
  facet normal -0 0 1
    outer loop
      vertex 10 4.25 4.25
      vertex 14.5 -4.25 4.25
      vertex 14.5 4.25 4.25
    endloop
  endfacet
  facet normal 0 0 1
    outer loop
      vertex 14.5 -4.25 4.25
      vertex 10 4.25 4.25
      vertex 10 -4.25 4.25
    endloop
  endfacet
  facet normal 0 1 -0
    outer loop
      vertex 14.5 4.25 -4.25
      vertex 10 4.25 4.25
      vertex 14.5 4.25 4.25
    endloop
  endfacet
  facet normal 0 1 0
    outer loop
      vertex 10 4.25 4.25
      vertex 14.5 4.25 -4.25
      vertex 10 4.25 -4.25
    endloop
  endfacet
  facet normal 0 -1 0
    outer loop
      vertex -10 4.25 -4.25
      vertex 9.5 4.25 4.25
      vertex -10 4.25 4.25
    endloop
  endfacet
  facet normal 0 -1 -0
    outer loop
      vertex 9.5 4.25 4.25
      vertex -10 4.25 -4.25
      vertex 9.5 4.25 -4.25
    endloop
  endfacet
  facet normal -0 0 1
    outer loop
      vertex -10 4.25 -4.25
      vertex 9.5 -4.25 -4.25
      vertex 9.5 4.25 -4.25
    endloop
  endfacet
  facet normal 0 0 1
    outer loop
      vertex 9.5 -4.25 -4.25
      vertex -10 4.25 -4.25
      vertex -10 -4.25 -4.25
    endloop
  endfacet
  facet normal 0 0 -1
    outer loop
      vertex 10 -4.25 -4.25
      vertex 14.5 4.25 -4.25
      vertex 14.5 -4.25 -4.25
    endloop
  endfacet
  facet normal -0 0 -1
    outer loop
      vertex 14.5 4.25 -4.25
      vertex 10 -4.25 -4.25
      vertex 10 4.25 -4.25
    endloop
  endfacet
  facet normal 0 1 -0
    outer loop
      vertex 9.5 -4.25 -4.25
      vertex -10 -4.25 4.25
      vertex 9.5 -4.25 4.25
    endloop
  endfacet
  facet normal 0 1 0
    outer loop
      vertex -10 -4.25 4.25
      vertex 9.5 -4.25 -4.25
      vertex -10 -4.25 -4.25
    endloop
  endfacet
  facet normal 0 -1 0
    outer loop
      vertex 10 -4.25 -4.25
      vertex 14.5 -4.25 4.25
      vertex 10 -4.25 4.25
    endloop
  endfacet
  facet normal 0 -1 -0
    outer loop
      vertex 14.5 -4.25 4.25
      vertex 10 -4.25 -4.25
      vertex 14.5 -4.25 -4.25
    endloop
  endfacet
  facet normal -1 0 0
    outer loop
      vertex 9.5 4.25 -4.25
      vertex 9.5 1 -1
      vertex 9.5 4.25 4.25
    endloop
  endfacet
  facet normal -1 0 0
    outer loop
      vertex 9.5 4.25 -4.25
      vertex 9.5 -1 -1
      vertex 9.5 1 -1
    endloop
  endfacet
  facet normal -1 -0 0
    outer loop
      vertex 9.5 -1 -1
      vertex 9.5 -4.25 -4.25
      vertex 9.5 -1 1
    endloop
  endfacet
  facet normal -1 0 0
    outer loop
      vertex 9.5 -4.25 -4.25
      vertex 9.5 -1 -1
      vertex 9.5 4.25 -4.25
    endloop
  endfacet
  facet normal -1 0 0
    outer loop
      vertex 9.5 1 1
      vertex 9.5 4.25 4.25
      vertex 9.5 1 -1
    endloop
  endfacet
  facet normal -1 0 0
    outer loop
      vertex 9.5 -1 1
      vertex 9.5 4.25 4.25
      vertex 9.5 1 1
    endloop
  endfacet
  facet normal -1 0 0
    outer loop
      vertex 9.5 -1 1
      vertex 9.5 -4.25 4.25
      vertex 9.5 4.25 4.25
    endloop
  endfacet
  facet normal -1 0 0
    outer loop
      vertex 9.5 -4.25 4.25
      vertex 9.5 -1 1
      vertex 9.5 -4.25 -4.25
    endloop
  endfacet
  facet normal 1 0 0
    outer loop
      vertex 14.5 4.25 4.25
      vertex 14.5 1 1
      vertex 14.5 4.25 -4.25
    endloop
  endfacet
  facet normal 1 0 0
    outer loop
      vertex 14.5 4.25 4.25
      vertex 14.5 -1 1
      vertex 14.5 1 1
    endloop
  endfacet
  facet normal 1 0 0
    outer loop
      vertex 14.5 -1 1
      vertex 14.5 -4.25 4.25
      vertex 14.5 -1 -1
    endloop
  endfacet
  facet normal 1 -0 0
    outer loop
      vertex 14.5 -4.25 4.25
      vertex 14.5 -1 1
      vertex 14.5 4.25 4.25
    endloop
  endfacet
  facet normal 1 -0 0
    outer loop
      vertex 14.5 1 -1
      vertex 14.5 4.25 -4.25
      vertex 14.5 1 1
    endloop
  endfacet
  facet normal 1 -0 0
    outer loop
      vertex 14.5 -1 -1
      vertex 14.5 4.25 -4.25
      vertex 14.5 1 -1
    endloop
  endfacet
  facet normal 1 0 0
    outer loop
      vertex 14.5 -1 -1
      vertex 14.5 -4.25 -4.25
      vertex 14.5 4.25 -4.25
    endloop
  endfacet
  facet normal 1 0 0
    outer loop
      vertex 14.5 -4.25 -4.25
      vertex 14.5 -1 -1
      vertex 14.5 -4.25 4.25
    endloop
  endfacet
  facet normal 0 0 -1
    outer loop
      vertex 9.5 -1 1
      vertex 14.5 1 1
      vertex 14.5 -1 1
    endloop
  endfacet
  facet normal -0 0 -1
    outer loop
      vertex 14.5 1 1
      vertex 9.5 -1 1
      vertex 9.5 1 1
    endloop
  endfacet
  facet normal 0 -1 0
    outer loop
      vertex 9.5 1 -1
      vertex 14.5 1 1
      vertex 9.5 1 1
    endloop
  endfacet
  facet normal 0 -1 -0
    outer loop
      vertex 14.5 1 1
      vertex 9.5 1 -1
      vertex 14.5 1 -1
    endloop
  endfacet
  facet normal -0 0 1
    outer loop
      vertex 9.5 1 -1
      vertex 14.5 -1 -1
      vertex 14.5 1 -1
    endloop
  endfacet
  facet normal 0 0 1
    outer loop
      vertex 14.5 -1 -1
      vertex 9.5 1 -1
      vertex 9.5 -1 -1
    endloop
  endfacet
  facet normal 0 1 -0
    outer loop
      vertex 14.5 -1 -1
      vertex 9.5 -1 1
      vertex 14.5 -1 1
    endloop
  endfacet
  facet normal 0 1 0
    outer loop
      vertex 9.5 -1 1
      vertex 14.5 -1 -1
      vertex 9.5 -1 -1
    endloop
  endfacet
endsolid OpenSCAD_Model
