solid OpenSCAD_Model
  facet normal 0.980785 0.19509 0
    outer loop
      vertex 15 10 30
      vertex 14.6194 11.9134 10
      vertex 14.6194 11.9134 30
    endloop
  endfacet
  facet normal 0.980785 0.19509 0
    outer loop
      vertex 14.6194 11.9134 10
      vertex 15 10 30
      vertex 15 10 10
    endloop
  endfacet
  facet normal 0.83147 0.55557 0
    outer loop
      vertex 14.6194 11.9134 30
      vertex 13.5355 13.5355 10
      vertex 13.5355 13.5355 30
    endloop
  endfacet
  facet normal 0.83147 0.55557 0
    outer loop
      vertex 13.5355 13.5355 10
      vertex 14.6194 11.9134 30
      vertex 14.6194 11.9134 10
    endloop
  endfacet
  facet normal 0.55557 0.83147 -0
    outer loop
      vertex 13.5355 13.5355 10
      vertex 11.9134 14.6194 30
      vertex 13.5355 13.5355 30
    endloop
  endfacet
  facet normal 0.55557 0.83147 0
    outer loop
      vertex 11.9134 14.6194 30
      vertex 13.5355 13.5355 10
      vertex 11.9134 14.6194 10
    endloop
  endfacet
  facet normal 0.19509 0.980785 -0
    outer loop
      vertex 11.9134 14.6194 10
      vertex 10 15 30
      vertex 11.9134 14.6194 30
    endloop
  endfacet
  facet normal 0.19509 0.980785 0
    outer loop
      vertex 10 15 30
      vertex 11.9134 14.6194 10
      vertex 10 15 10
    endloop
  endfacet
  facet normal -0.19509 0.980785 0
    outer loop
      vertex 10 15 10
      vertex 8.08658 14.6194 30
      vertex 10 15 30
    endloop
  endfacet
  facet normal -0.19509 0.980785 0
    outer loop
      vertex 8.08658 14.6194 30
      vertex 10 15 10
      vertex 8.08658 14.6194 10
    endloop
  endfacet
  facet normal -0.55557 0.83147 0
    outer loop
      vertex 8.08658 14.6194 10
      vertex 6.46447 13.5355 30
      vertex 8.08658 14.6194 30
    endloop
  endfacet
  facet normal -0.55557 0.83147 0
    outer loop
      vertex 6.46447 13.5355 30
      vertex 8.08658 14.6194 10
      vertex 6.46447 13.5355 10
    endloop
  endfacet
  facet normal -0.83147 0.55557 0
    outer loop
      vertex 5.3806 11.9134 10
      vertex 6.46447 13.5355 30
      vertex 6.46447 13.5355 10
    endloop
  endfacet
  facet normal -0.83147 0.55557 0
    outer loop
      vertex 6.46447 13.5355 30
      vertex 5.3806 11.9134 10
      vertex 5.3806 11.9134 30
    endloop
  endfacet
  facet normal -0.980785 0.19509 0
    outer loop
      vertex 5 10 10
      vertex 5.3806 11.9134 30
      vertex 5.3806 11.9134 10
    endloop
  endfacet
  facet normal -0.980785 0.19509 0
    outer loop
      vertex 5.3806 11.9134 30
      vertex 5 10 10
      vertex 5 10 30
    endloop
  endfacet
  facet normal -0.980785 -0.19509 0
    outer loop
      vertex 5.3806 8.08658 10
      vertex 5 10 30
      vertex 5 10 10
    endloop
  endfacet
  facet normal -0.980785 -0.19509 0
    outer loop
      vertex 5 10 30
      vertex 5.3806 8.08658 10
      vertex 5.3806 8.08658 30
    endloop
  endfacet
  facet normal -0.83147 -0.55557 0
    outer loop
      vertex 6.46447 6.46447 10
      vertex 5.3806 8.08658 30
      vertex 5.3806 8.08658 10
    endloop
  endfacet
  facet normal -0.83147 -0.55557 0
    outer loop
      vertex 5.3806 8.08658 30
      vertex 6.46447 6.46447 10
      vertex 6.46447 6.46447 30
    endloop
  endfacet
  facet normal -0.55557 -0.83147 0
    outer loop
      vertex 6.46447 6.46447 10
      vertex 8.08658 5.3806 30
      vertex 6.46447 6.46447 30
    endloop
  endfacet
  facet normal -0.55557 -0.83147 -0
    outer loop
      vertex 8.08658 5.3806 30
      vertex 6.46447 6.46447 10
      vertex 8.08658 5.3806 10
    endloop
  endfacet
  facet normal -0.19509 -0.980785 0
    outer loop
      vertex 8.08658 5.3806 10
      vertex 10 5 30
      vertex 8.08658 5.3806 30
    endloop
  endfacet
  facet normal -0.19509 -0.980785 -0
    outer loop
      vertex 10 5 30
      vertex 8.08658 5.3806 10
      vertex 10 5 10
    endloop
  endfacet
  facet normal 0.19509 -0.980785 0
    outer loop
      vertex 10 5 10
      vertex 11.9134 5.3806 30
      vertex 10 5 30
    endloop
  endfacet
  facet normal 0.19509 -0.980785 0
    outer loop
      vertex 11.9134 5.3806 30
      vertex 10 5 10
      vertex 11.9134 5.3806 10
    endloop
  endfacet
  facet normal 0.55557 -0.83147 0
    outer loop
      vertex 11.9134 5.3806 10
      vertex 13.5355 6.46447 30
      vertex 11.9134 5.3806 30
    endloop
  endfacet
  facet normal 0.55557 -0.83147 0
    outer loop
      vertex 13.5355 6.46447 30
      vertex 11.9134 5.3806 10
      vertex 13.5355 6.46447 10
    endloop
  endfacet
  facet normal 0.83147 -0.55557 0
    outer loop
      vertex 13.5355 6.46447 30
      vertex 14.6194 8.08658 10
      vertex 14.6194 8.08658 30
    endloop
  endfacet
  facet normal 0.83147 -0.55557 0
    outer loop
      vertex 14.6194 8.08658 10
      vertex 13.5355 6.46447 30
      vertex 13.5355 6.46447 10
    endloop
  endfacet
  facet normal 0.980785 -0.19509 0
    outer loop
      vertex 14.6194 8.08658 30
      vertex 15 10 10
      vertex 15 10 30
    endloop
  endfacet
  facet normal 0.980785 -0.19509 0
    outer loop
      vertex 15 10 10
      vertex 14.6194 8.08658 30
      vertex 14.6194 8.08658 10
    endloop
  endfacet
  facet normal 0 0 -1
    outer loop
      vertex 14.6194 8.08658 10
      vertex 14.6194 11.9134 10
      vertex 15 10 10
    endloop
  endfacet
  facet normal 0 0 -1
    outer loop
      vertex 13.5355 6.46447 10
      vertex 14.6194 11.9134 10
      vertex 14.6194 8.08658 10
    endloop
  endfacet
  facet normal 0 0 -1
    outer loop
      vertex 13.5355 6.46447 10
      vertex 13.5355 13.5355 10
      vertex 14.6194 11.9134 10
    endloop
  endfacet
  facet normal 0 0 -1
    outer loop
      vertex 11.9134 5.3806 10
      vertex 13.5355 13.5355 10
      vertex 13.5355 6.46447 10
    endloop
  endfacet
  facet normal 0 0 -1
    outer loop
      vertex 11.9134 5.3806 10
      vertex 11.9134 14.6194 10
      vertex 13.5355 13.5355 10
    endloop
  endfacet
  facet normal 0 0 -1
    outer loop
      vertex 10 5 10
      vertex 11.9134 14.6194 10
      vertex 11.9134 5.3806 10
    endloop
  endfacet
  facet normal 0 0 -1
    outer loop
      vertex 10 5 10
      vertex 10 15 10
      vertex 11.9134 14.6194 10
    endloop
  endfacet
  facet normal 0 0 -1
    outer loop
      vertex 8.08658 5.3806 10
      vertex 10 15 10
      vertex 10 5 10
    endloop
  endfacet
  facet normal 0 0 -1
    outer loop
      vertex 8.08658 5.3806 10
      vertex 8.08658 14.6194 10
      vertex 10 15 10
    endloop
  endfacet
  facet normal 0 0 -1
    outer loop
      vertex 6.46447 6.46447 10
      vertex 8.08658 14.6194 10
      vertex 8.08658 5.3806 10
    endloop
  endfacet
  facet normal 0 0 -1
    outer loop
      vertex 6.46447 6.46447 10
      vertex 6.46447 13.5355 10
      vertex 8.08658 14.6194 10
    endloop
  endfacet
  facet normal 0 0 -1
    outer loop
      vertex 5.3806 8.08658 10
      vertex 6.46447 13.5355 10
      vertex 6.46447 6.46447 10
    endloop
  endfacet
  facet normal 0 0 -1
    outer loop
      vertex 5.3806 8.08658 10
      vertex 5.3806 11.9134 10
      vertex 6.46447 13.5355 10
    endloop
  endfacet
  facet normal 0 -0 -1
    outer loop
      vertex 5.3806 11.9134 10
      vertex 5.3806 8.08658 10
      vertex 5 10 10
    endloop
  endfacet
  facet normal 0 0 1
    outer loop
      vertex 14.6194 11.9134 30
      vertex 14.6194 8.08658 30
      vertex 15 10 30
    endloop
  endfacet
  facet normal 0 0 1
    outer loop
      vertex 13.5355 13.5355 30
      vertex 14.6194 8.08658 30
      vertex 14.6194 11.9134 30
    endloop
  endfacet
  facet normal 0 0 1
    outer loop
      vertex 13.5355 13.5355 30
      vertex 13.5355 6.46447 30
      vertex 14.6194 8.08658 30
    endloop
  endfacet
  facet normal 0 0 1
    outer loop
      vertex 11.9134 14.6194 30
      vertex 13.5355 6.46447 30
      vertex 13.5355 13.5355 30
    endloop
  endfacet
  facet normal 0 0 1
    outer loop
      vertex 11.9134 14.6194 30
      vertex 11.9134 5.3806 30
      vertex 13.5355 6.46447 30
    endloop
  endfacet
  facet normal 0 0 1
    outer loop
      vertex 10 15 30
      vertex 11.9134 5.3806 30
      vertex 11.9134 14.6194 30
    endloop
  endfacet
  facet normal 0 0 1
    outer loop
      vertex 10 15 30
      vertex 10 5 30
      vertex 11.9134 5.3806 30
    endloop
  endfacet
  facet normal -0 0 1
    outer loop
      vertex 8.08658 14.6194 30
      vertex 10 5 30
      vertex 10 15 30
    endloop
  endfacet
  facet normal 0 0 1
    outer loop
      vertex 8.08658 14.6194 30
      vertex 8.08658 5.3806 30
      vertex 10 5 30
    endloop
  endfacet
  facet normal -0 0 1
    outer loop
      vertex 6.46447 13.5355 30
      vertex 8.08658 5.3806 30
      vertex 8.08658 14.6194 30
    endloop
  endfacet
  facet normal 0 0 1
    outer loop
      vertex 6.46447 13.5355 30
      vertex 6.46447 6.46447 30
      vertex 8.08658 5.3806 30
    endloop
  endfacet
  facet normal -0 0 1
    outer loop
      vertex 5.3806 11.9134 30
      vertex 6.46447 6.46447 30
      vertex 6.46447 13.5355 30
    endloop
  endfacet
  facet normal 0 0 1
    outer loop
      vertex 5.3806 11.9134 30
      vertex 5.3806 8.08658 30
      vertex 6.46447 6.46447 30
    endloop
  endfacet
  facet normal 0 -0 1
    outer loop
      vertex 5.3806 8.08658 30
      vertex 5.3806 11.9134 30
      vertex 5 10 30
    endloop
  endfacet
endsolid OpenSCAD_Model
