solid OpenSCAD_Model
  facet normal -0.994522 0.104529 0
    outer loop
      vertex -11 0 0
      vertex -10.7596 2.28703 7
      vertex -10.7596 2.28703 0
    endloop
  endfacet
  facet normal -0.994522 0.104529 0
    outer loop
      vertex -10.7596 2.28703 7
      vertex -11 0 0
      vertex -11 0 7
    endloop
  endfacet
  facet normal 0 1 -0
    outer loop
      vertex 1.14981 10.9397 0
      vertex -1.14981 10.9397 7
      vertex 1.14981 10.9397 7
    endloop
  endfacet
  facet normal 0 1 0
    outer loop
      vertex -1.14981 10.9397 7
      vertex 1.14981 10.9397 0
      vertex -1.14981 10.9397 0
    endloop
  endfacet
  facet normal 0 -1 0
    outer loop
      vertex -1.14981 -10.9397 0
      vertex 0 -10.9397 7
      vertex -1.14981 -10.9397 7
    endloop
  endfacet
  facet normal 0 -1 -0
    outer loop
      vertex 0 -10.9397 7
      vertex -1.14981 -10.9397 0
      vertex 0 -10.9397 0
    endloop
  endfacet
  facet normal -0.587785 0.809017 0
    outer loop
      vertex -5.5 9.52628 0
      vertex -7.36044 8.17459 7
      vertex -5.5 9.52628 7
    endloop
  endfacet
  facet normal -0.587785 0.809017 0
    outer loop
      vertex -7.36044 8.17459 7
      vertex -5.5 9.52628 0
      vertex -7.36044 8.17459 0
    endloop
  endfacet
  facet normal -0.207912 0.978148 0
    outer loop
      vertex -1.14981 10.9397 0
      vertex -3.39919 10.4616 7
      vertex -1.14981 10.9397 7
    endloop
  endfacet
  facet normal -0.207912 0.978148 0
    outer loop
      vertex -3.39919 10.4616 7
      vertex -1.14981 10.9397 0
      vertex -3.39919 10.4616 0
    endloop
  endfacet
  facet normal 0.207912 0.978148 -0
    outer loop
      vertex 2.92414 10.5626 0
      vertex 1.14981 10.9397 7
      vertex 2.92414 10.5626 7
    endloop
  endfacet
  facet normal 0.207912 0.978148 0
    outer loop
      vertex 1.14981 10.9397 7
      vertex 2.92414 10.5626 0
      vertex 1.14981 10.9397 0
    endloop
  endfacet
  facet normal -0.866025 0.5 0
    outer loop
      vertex -10.049 4.4741 0
      vertex -8.89919 6.46564 7
      vertex -8.89919 6.46564 0
    endloop
  endfacet
  facet normal -0.866025 0.5 0
    outer loop
      vertex -8.89919 6.46564 7
      vertex -10.049 4.4741 0
      vertex -10.049 4.4741 7
    endloop
  endfacet
  facet normal -0.743145 0.66913 0
    outer loop
      vertex -8.89919 6.46564 0
      vertex -7.36044 8.17459 7
      vertex -7.36044 8.17459 0
    endloop
  endfacet
  facet normal -0.743145 0.66913 0
    outer loop
      vertex -7.36044 8.17459 7
      vertex -8.89919 6.46564 0
      vertex -8.89919 6.46564 7
    endloop
  endfacet
  facet normal -0.951057 0.309017 0
    outer loop
      vertex -10.7596 2.28703 0
      vertex -10.049 4.4741 7
      vertex -10.049 4.4741 0
    endloop
  endfacet
  facet normal -0.951057 0.309017 0
    outer loop
      vertex -10.049 4.4741 7
      vertex -10.7596 2.28703 0
      vertex -10.7596 2.28703 7
    endloop
  endfacet
  facet normal 0 0 1
    outer loop
      vertex -0.35216 6.6613 7
      vertex 2.92414 10.5626 7
      vertex 1.14981 10.9397 7
    endloop
  endfacet
  facet normal 0 0 1
    outer loop
      vertex 2.92414 10.5626 7
      vertex -0.35216 6.6613 7
      vertex 2.87087 3.43826 7
    endloop
  endfacet
  facet normal -0 0 1
    outer loop
      vertex -1.14981 10.9397 7
      vertex -0.35216 6.6613 7
      vertex 1.14981 10.9397 7
    endloop
  endfacet
  facet normal 0 0 1
    outer loop
      vertex -1.44639 6.33703 7
      vertex -0.35216 6.6613 7
      vertex -1.14981 10.9397 7
    endloop
  endfacet
  facet normal 0 0 1
    outer loop
      vertex -0.35216 6.6613 7
      vertex -1.44639 6.33703 7
      vertex -0.61405 6.39941 7
    endloop
  endfacet
  facet normal -0 0 1
    outer loop
      vertex -3.39919 10.4616 7
      vertex -1.44639 6.33703 7
      vertex -1.14981 10.9397 7
    endloop
  endfacet
  facet normal 0 0 1
    outer loop
      vertex -1.44639 6.33703 7
      vertex -3.39919 10.4616 7
      vertex -3.25 5.62916 7
    endloop
  endfacet
  facet normal -0 0 1
    outer loop
      vertex -5.5 9.52628 7
      vertex -3.25 5.62916 7
      vertex -3.39919 10.4616 7
    endloop
  endfacet
  facet normal -0 0 1
    outer loop
      vertex -7.36044 8.17459 7
      vertex -3.25 5.62916 7
      vertex -5.5 9.52628 7
    endloop
  endfacet
  facet normal 0 0 1
    outer loop
      vertex -3.25 5.62916 7
      vertex -7.36044 8.17459 7
      vertex -4.76484 4.42112 7
    endloop
  endfacet
  facet normal -0 0 1
    outer loop
      vertex -8.89919 6.46564 7
      vertex -4.76484 4.42112 7
      vertex -7.36044 8.17459 7
    endloop
  endfacet
  facet normal -0 0 1
    outer loop
      vertex -10.049 4.4741 7
      vertex -5.8563 2.82024 7
      vertex -8.89919 6.46564 7
    endloop
  endfacet
  facet normal 0 0 1
    outer loop
      vertex -4.76484 4.42112 7
      vertex -8.89919 6.46564 7
      vertex -5.8563 2.82024 7
    endloop
  endfacet
  facet normal 0 0 1
    outer loop
      vertex 15 -0.382359 7
      vertex 12.0633 -5.75413 7
      vertex 15 -8.69086 7
    endloop
  endfacet
  facet normal 0 0 1
    outer loop
      vertex 2.87087 3.43826 7
      vertex 12.0633 -5.75413 7
      vertex 15 -0.382359 7
    endloop
  endfacet
  facet normal -0 0 1
    outer loop
      vertex 6.93674 7.50413 7
      vertex 15 -0.382359 7
      vertex 7.02513 7.59251 7
    endloop
  endfacet
  facet normal -0 0 1
    outer loop
      vertex 2.87087 3.43826 7
      vertex 15 -0.382359 7
      vertex 6.93674 7.50413 7
    endloop
  endfacet
  facet normal -0 0 1
    outer loop
      vertex 2.92414 10.5626 7
      vertex 6.93674 7.50413 7
      vertex 3.4012 11.0397 7
    endloop
  endfacet
  facet normal 0 0 1
    outer loop
      vertex 6.93674 7.50413 7
      vertex 2.92414 10.5626 7
      vertex 2.87087 3.43826 7
    endloop
  endfacet
  facet normal 0 0 1
    outer loop
      vertex 12.0633 -5.75413 7
      vertex 2.87087 3.43826 7
      vertex 11.9749 -5.84251 7
    endloop
  endfacet
  facet normal 0 0 1
    outer loop
      vertex 11.9749 -5.84251 7
      vertex 2.87087 3.43826 7
      vertex 2.78249 3.34987 7
    endloop
  endfacet
  facet normal -0 0 1
    outer loop
      vertex 15 -0.382359 7
      vertex 20.75 -9.1 7
      vertex 20.75 12.9 7
    endloop
  endfacet
  facet normal 0 0 1
    outer loop
      vertex 20.75 -9.1 7
      vertex 15 -0.382359 7
      vertex 15.7885 -9.1 7
    endloop
  endfacet
  facet normal -0 0 1
    outer loop
      vertex 15 -8.69086 7
      vertex 15.7885 -9.1 7
      vertex 15 -0.382359 7
    endloop
  endfacet
  facet normal 0 0 1
    outer loop
      vertex 15 -0.382359 7
      vertex 20.75 12.9 7
      vertex 15 12.9 7
    endloop
  endfacet
  facet normal 0 0 1
    outer loop
      vertex 15.7885 -9.1 7
      vertex 15.4091 -9.1 7
      vertex 15.5988 -9.28966 7
    endloop
  endfacet
  facet normal 0 0 1
    outer loop
      vertex 15.7885 -9.1 7
      vertex 15 -8.69086 7
      vertex 15.4091 -9.1 7
    endloop
  endfacet
  facet normal 0 0 1
    outer loop
      vertex 15.4091 -9.1 7
      vertex 15 -8.69086 7
      vertex 15 -9.1 7
    endloop
  endfacet
  facet normal 0 0 1
    outer loop
      vertex 0 -6.44542 7
      vertex -1.14981 -10.9397 7
      vertex 0 -10.9397 7
    endloop
  endfacet
  facet normal 0 0 1
    outer loop
      vertex -1.44639 -6.33703 7
      vertex -1.14981 -10.9397 7
      vertex 0 -6.44542 7
    endloop
  endfacet
  facet normal 0 0 1
    outer loop
      vertex -3.39919 -10.4616 7
      vertex -1.44639 -6.33703 7
      vertex -3.25 -5.62916 7
    endloop
  endfacet
  facet normal 0 0 1
    outer loop
      vertex -1.44639 -6.33703 7
      vertex -3.39919 -10.4616 7
      vertex -1.14981 -10.9397 7
    endloop
  endfacet
  facet normal 0 0 1
    outer loop
      vertex -7.36044 -8.17459 7
      vertex -3.25 -5.62916 7
      vertex -4.76484 -4.42112 7
    endloop
  endfacet
  facet normal 0 0 1
    outer loop
      vertex -3.25 -5.62916 7
      vertex -5.5 -9.52628 7
      vertex -3.39919 -10.4616 7
    endloop
  endfacet
  facet normal 0 0 1
    outer loop
      vertex -8.89919 -6.46564 7
      vertex -4.76484 -4.42112 7
      vertex -5.8563 -2.82024 7
    endloop
  endfacet
  facet normal -0 0 1
    outer loop
      vertex -10.7596 -2.28703 7
      vertex -5.8563 -2.82024 7
      vertex -6.4274 -0.968774 7
    endloop
  endfacet
  facet normal 0 0 1
    outer loop
      vertex -3.25 -5.62916 7
      vertex -7.36044 -8.17459 7
      vertex -5.5 -9.52628 7
    endloop
  endfacet
  facet normal 0 0 1
    outer loop
      vertex -10.7596 2.28703 7
      vertex -5.8563 2.82024 7
      vertex -10.049 4.4741 7
    endloop
  endfacet
  facet normal 0 0 1
    outer loop
      vertex -5.8563 2.82024 7
      vertex -10.7596 2.28703 7
      vertex -6.4274 0.968774 7
    endloop
  endfacet
  facet normal 0 0 1
    outer loop
      vertex -4.76484 -4.42112 7
      vertex -8.89919 -6.46564 7
      vertex -7.36044 -8.17459 7
    endloop
  endfacet
  facet normal 0 0 1
    outer loop
      vertex -11 0 7
      vertex -6.4274 0.968774 7
      vertex -10.7596 2.28703 7
    endloop
  endfacet
  facet normal 0 0 1
    outer loop
      vertex -5.8563 -2.82024 7
      vertex -10.049 -4.4741 7
      vertex -8.89919 -6.46564 7
    endloop
  endfacet
  facet normal 0 0 1
    outer loop
      vertex -6.4274 0.968774 7
      vertex -11 0 7
      vertex -6.4274 -0.968774 7
    endloop
  endfacet
  facet normal 0 0 1
    outer loop
      vertex -5.8563 -2.82024 7
      vertex -10.7596 -2.28703 7
      vertex -10.049 -4.4741 7
    endloop
  endfacet
  facet normal 0 0 1
    outer loop
      vertex -6.4274 -0.968774 7
      vertex -11 0 7
      vertex -10.7596 -2.28703 7
    endloop
  endfacet
  facet normal -0.406737 0.913545 0
    outer loop
      vertex -3.39919 10.4616 0
      vertex -5.5 9.52628 7
      vertex -3.39919 10.4616 7
    endloop
  endfacet
  facet normal -0.406737 0.913545 0
    outer loop
      vertex -5.5 9.52628 7
      vertex -3.39919 10.4616 0
      vertex -5.5 9.52628 0
    endloop
  endfacet
  facet normal 0 0 -1
    outer loop
      vertex 0 -10.9397 0
      vertex -1 -9.94522 0
      vertex 0 -6.44542 0
    endloop
  endfacet
  facet normal 0 0 -1
    outer loop
      vertex -1.14981 -10.9397 0
      vertex -1 -9.94522 0
      vertex 0 -10.9397 0
    endloop
  endfacet
  facet normal -0 0 -1
    outer loop
      vertex -1 -9.94522 0
      vertex -1.14981 -10.9397 0
      vertex -1.04528 -9.94522 0
    endloop
  endfacet
  facet normal 0 0 -1
    outer loop
      vertex -1.14981 -10.9397 0
      vertex -3.09017 -9.51056 0
      vertex -1.04528 -9.94522 0
    endloop
  endfacet
  facet normal 0 0 -1
    outer loop
      vertex -3.39919 -10.4616 0
      vertex -3.09017 -9.51056 0
      vertex -1.14981 -10.9397 0
    endloop
  endfacet
  facet normal 0 0 -1
    outer loop
      vertex -3.39919 -10.4616 0
      vertex -5 -8.66025 0
      vertex -3.09017 -9.51056 0
    endloop
  endfacet
  facet normal 0 0 -1
    outer loop
      vertex -5.5 -9.52628 0
      vertex -5 -8.66025 0
      vertex -3.39919 -10.4616 0
    endloop
  endfacet
  facet normal 0 0 -1
    outer loop
      vertex -5.5 -9.52628 0
      vertex -6.69131 -7.43145 0
      vertex -5 -8.66025 0
    endloop
  endfacet
  facet normal 0 0 -1
    outer loop
      vertex -7.36044 -8.17459 0
      vertex -6.69131 -7.43145 0
      vertex -5.5 -9.52628 0
    endloop
  endfacet
  facet normal 0 0 -1
    outer loop
      vertex -7.36044 -8.17459 0
      vertex -8.09017 -5.87785 0
      vertex -6.69131 -7.43145 0
    endloop
  endfacet
  facet normal 0 0 -1
    outer loop
      vertex -8.89919 -6.46564 0
      vertex -8.09017 -5.87785 0
      vertex -7.36044 -8.17459 0
    endloop
  endfacet
  facet normal 0 0 -1
    outer loop
      vertex -8.89919 -6.46564 0
      vertex -9.13545 -4.06737 0
      vertex -8.09017 -5.87785 0
    endloop
  endfacet
  facet normal 0 0 -1
    outer loop
      vertex -10.049 -4.4741 0
      vertex -9.13545 -4.06737 0
      vertex -8.89919 -6.46564 0
    endloop
  endfacet
  facet normal 0 0 -1
    outer loop
      vertex -10.7596 -2.28703 0
      vertex -9.78148 -2.07912 0
      vertex -10.049 -4.4741 0
    endloop
  endfacet
  facet normal -0 0 -1
    outer loop
      vertex -9.13545 -4.06737 0
      vertex -10.049 -4.4741 0
      vertex -9.78148 -2.07912 0
    endloop
  endfacet
  facet normal 0 0 -1
    outer loop
      vertex -1 -7.36835 0
      vertex 0 -6.44542 0
      vertex -1 -9.94522 0
    endloop
  endfacet
  facet normal 0 0 -1
    outer loop
      vertex -1 -7.36835 0
      vertex -1.44639 -6.33703 0
      vertex 0 -6.44542 0
    endloop
  endfacet
  facet normal 0 0 -1
    outer loop
      vertex -1.94114 -7.24444 0
      vertex -1.44639 -6.33703 0
      vertex -1 -7.36835 0
    endloop
  endfacet
  facet normal 0 0 -1
    outer loop
      vertex -1.94114 -7.24444 0
      vertex -3.25 -5.62916 0
      vertex -1.44639 -6.33703 0
    endloop
  endfacet
  facet normal 0 0 -1
    outer loop
      vertex -3.75 -6.49519 0
      vertex -3.25 -5.62916 0
      vertex -1.94114 -7.24444 0
    endloop
  endfacet
  facet normal 0 0 -1
    outer loop
      vertex -5.3033 -5.3033 0
      vertex -3.25 -5.62916 0
      vertex -3.75 -6.49519 0
    endloop
  endfacet
  facet normal 0 0 -1
    outer loop
      vertex -3.25 -5.62916 0
      vertex -5.3033 -5.3033 0
      vertex -4.76484 -4.42112 0
    endloop
  endfacet
  facet normal 0 0 -1
    outer loop
      vertex -6.49519 -3.75 0
      vertex -4.76484 -4.42112 0
      vertex -5.3033 -5.3033 0
    endloop
  endfacet
  facet normal 0 0 -1
    outer loop
      vertex -4.76484 -4.42112 0
      vertex -6.49519 -3.75 0
      vertex -5.8563 -2.82024 0
    endloop
  endfacet
  facet normal 0 0 -1
    outer loop
      vertex -5.8563 -2.82024 0
      vertex -7.24444 -1.94114 0
      vertex -6.4274 -0.968774 0
    endloop
  endfacet
  facet normal 0 0 -1
    outer loop
      vertex -7.24444 -1.94114 0
      vertex -5.8563 -2.82024 0
      vertex -6.49519 -3.75 0
    endloop
  endfacet
  facet normal 0 0 -1
    outer loop
      vertex 3.0066 10.0201 0
      vertex 6.93674 7.50413 0
      vertex 6.22963 6.79702 0
    endloop
  endfacet
  facet normal 0 0 -1
    outer loop
      vertex 6.93674 7.50413 0
      vertex 3.0066 10.0201 0
      vertex 3.4012 11.0397 0
    endloop
  endfacet
  facet normal 0 0 -1
    outer loop
      vertex 3.0066 10.0201 0
      vertex 2.92414 10.5626 0
      vertex 3.4012 11.0397 0
    endloop
  endfacet
  facet normal 0 0 -1
    outer loop
      vertex 2.6941 10.3326 0
      vertex 2.92414 10.5626 0
      vertex 3.0066 10.0201 0
    endloop
  endfacet
  facet normal 0 0 -1
    outer loop
      vertex 2.6941 10.3326 0
      vertex 1.14981 10.9397 0
      vertex 2.92414 10.5626 0
    endloop
  endfacet
  facet normal 0 0 -1
    outer loop
      vertex 2.08563 9.72409 0
      vertex 1.14981 10.9397 0
      vertex 2.6941 10.3326 0
    endloop
  endfacet
  facet normal 0 0 -1
    outer loop
      vertex 1.04528 9.94522 0
      vertex 1.14981 10.9397 0
      vertex 2.08563 9.72409 0
    endloop
  endfacet
  facet normal 0 0 -1
    outer loop
      vertex -1.04528 9.94522 0
      vertex 1.14981 10.9397 0
      vertex 1.04528 9.94522 0
    endloop
  endfacet
  facet normal 0 0 -1
    outer loop
      vertex -1.04528 9.94522 0
      vertex -1.14981 10.9397 0
      vertex 1.14981 10.9397 0
    endloop
  endfacet
  facet normal 0 0 -1
    outer loop
      vertex -3.09017 9.51056 0
      vertex -1.14981 10.9397 0
      vertex -1.04528 9.94522 0
    endloop
  endfacet
  facet normal 0 0 -1
    outer loop
      vertex -3.09017 9.51056 0
      vertex -3.39919 10.4616 0
      vertex -1.14981 10.9397 0
    endloop
  endfacet
  facet normal 0 0 -1
    outer loop
      vertex -5 8.66025 0
      vertex -3.39919 10.4616 0
      vertex -3.09017 9.51056 0
    endloop
  endfacet
  facet normal 0 0 -1
    outer loop
      vertex -5 8.66025 0
      vertex -5.5 9.52628 0
      vertex -3.39919 10.4616 0
    endloop
  endfacet
  facet normal 0 0 -1
    outer loop
      vertex -6.69131 7.43145 0
      vertex -5.5 9.52628 0
      vertex -5 8.66025 0
    endloop
  endfacet
  facet normal 0 0 -1
    outer loop
      vertex -6.69131 7.43145 0
      vertex -7.36044 8.17459 0
      vertex -5.5 9.52628 0
    endloop
  endfacet
  facet normal 0 0 -1
    outer loop
      vertex -8.09017 5.87785 0
      vertex -7.36044 8.17459 0
      vertex -6.69131 7.43145 0
    endloop
  endfacet
  facet normal 0 0 -1
    outer loop
      vertex -8.09017 5.87785 0
      vertex -8.89919 6.46564 0
      vertex -7.36044 8.17459 0
    endloop
  endfacet
  facet normal 0 0 -1
    outer loop
      vertex -9.13545 4.06737 0
      vertex -8.89919 6.46564 0
      vertex -8.09017 5.87785 0
    endloop
  endfacet
  facet normal 0 0 -1
    outer loop
      vertex -10.049 4.4741 0
      vertex -9.13545 4.06737 0
      vertex -9.78148 2.07912 0
    endloop
  endfacet
  facet normal 0 0 -1
    outer loop
      vertex -9.13545 4.06737 0
      vertex -10.049 4.4741 0
      vertex -8.89919 6.46564 0
    endloop
  endfacet
  facet normal 0 0 -1
    outer loop
      vertex -10.7596 2.28703 0
      vertex -9.78148 2.07912 0
      vertex -10 0 0
    endloop
  endfacet
  facet normal -0 0 -1
    outer loop
      vertex -9.78148 -2.07912 0
      vertex -10.7596 -2.28703 0
      vertex -10 0 0
    endloop
  endfacet
  facet normal 0 0 -1
    outer loop
      vertex -11 0 0
      vertex -10 0 0
      vertex -10.7596 -2.28703 0
    endloop
  endfacet
  facet normal 0 0 -1
    outer loop
      vertex -9.78148 2.07912 0
      vertex -10.7596 2.28703 0
      vertex -10.049 4.4741 0
    endloop
  endfacet
  facet normal 0 0 -1
    outer loop
      vertex -10 0 0
      vertex -11 0 0
      vertex -10.7596 2.28703 0
    endloop
  endfacet
  facet normal 0 0 -1
    outer loop
      vertex -0.35216 6.6613 0
      vertex 3.57798 4.14537 0
      vertex 2.87087 3.43826 0
    endloop
  endfacet
  facet normal 0 0 -1
    outer loop
      vertex 3.57798 4.14537 0
      vertex -0.35216 6.6613 0
      vertex 0.0424463 7.6809 0
    endloop
  endfacet
  facet normal 0 0 -1
    outer loop
      vertex 0.0424463 7.6809 0
      vertex -0.35216 6.6613 0
      vertex -0.159448 7.47901 0
    endloop
  endfacet
  facet normal 0 0 -1
    outer loop
      vertex -1.94114 7.24444 0
      vertex -0.35216 6.6613 0
      vertex -0.61405 6.39941 0
    endloop
  endfacet
  facet normal 0 0 -1
    outer loop
      vertex -1.94114 7.24444 0
      vertex -0.61405 6.39941 0
      vertex -1.44639 6.33703 0
    endloop
  endfacet
  facet normal 0 0 -1
    outer loop
      vertex -0.35216 6.6613 0
      vertex -1.94114 7.24444 0
      vertex -0.159448 7.47901 0
    endloop
  endfacet
  facet normal 0 0 -1
    outer loop
      vertex -3.25 5.62916 0
      vertex -1.94114 7.24444 0
      vertex -1.44639 6.33703 0
    endloop
  endfacet
  facet normal 0 0 -1
    outer loop
      vertex -3.25 5.62916 0
      vertex -3.75 6.49519 0
      vertex -1.94114 7.24444 0
    endloop
  endfacet
  facet normal 0 0 -1
    outer loop
      vertex -5.3033 5.3033 0
      vertex -3.25 5.62916 0
      vertex -4.76484 4.42112 0
    endloop
  endfacet
  facet normal -0 0 -1
    outer loop
      vertex -3.25 5.62916 0
      vertex -5.3033 5.3033 0
      vertex -3.75 6.49519 0
    endloop
  endfacet
  facet normal 0 0 -1
    outer loop
      vertex -6.49519 3.75 0
      vertex -4.76484 4.42112 0
      vertex -5.8563 2.82024 0
    endloop
  endfacet
  facet normal 0 0 -1
    outer loop
      vertex -7.24444 1.94114 0
      vertex -5.8563 2.82024 0
      vertex -6.4274 0.968774 0
    endloop
  endfacet
  facet normal -0 0 -1
    outer loop
      vertex -4.76484 4.42112 0
      vertex -6.49519 3.75 0
      vertex -5.3033 5.3033 0
    endloop
  endfacet
  facet normal 0 0 -1
    outer loop
      vertex -7.5 0 0
      vertex -6.4274 -0.968774 0
      vertex -7.24444 -1.94114 0
    endloop
  endfacet
  facet normal 0 0 -1
    outer loop
      vertex -6.4274 -0.968774 0
      vertex -7.5 0 0
      vertex -6.4274 0.968774 0
    endloop
  endfacet
  facet normal -0 0 -1
    outer loop
      vertex -5.8563 2.82024 0
      vertex -7.24444 1.94114 0
      vertex -6.49519 3.75 0
    endloop
  endfacet
  facet normal -0 0 -1
    outer loop
      vertex -6.4274 0.968774 0
      vertex -7.5 0 0
      vertex -7.24444 1.94114 0
    endloop
  endfacet
  facet normal -0 0 -1
    outer loop
      vertex 16 -1.38236 0
      vertex 14.7149 -1.68826 0
      vertex 15 -0.382359 0
    endloop
  endfacet
  facet normal 0 0 -1
    outer loop
      vertex 12.7704 -5.04702 0
      vertex 14.7149 -1.68826 0
      vertex 15.422 -2.39537 0
    endloop
  endfacet
  facet normal 0 0 -1
    outer loop
      vertex 12.0633 -4.33991 0
      vertex 12.7704 -5.04702 0
      vertex 12.0633 -5.75413 0
    endloop
  endfacet
  facet normal 0 0 -1
    outer loop
      vertex 12.7704 -5.04702 0
      vertex 12.0633 -4.33991 0
      vertex 14.7149 -1.68826 0
    endloop
  endfacet
  facet normal 0 0 -1
    outer loop
      vertex 11.9749 -5.84251 0
      vertex 12.0633 -4.33991 0
      vertex 12.0633 -5.75413 0
    endloop
  endfacet
  facet normal 0 0 -1
    outer loop
      vertex 11.9749 -5.84251 0
      vertex 4.28509 3.43826 0
      vertex 12.0633 -4.33991 0
    endloop
  endfacet
  facet normal 0 0 -1
    outer loop
      vertex 2.78249 3.34987 0
      vertex 4.28509 3.43826 0
      vertex 11.9749 -5.84251 0
    endloop
  endfacet
  facet normal 0 0 -1
    outer loop
      vertex 4.28509 3.43826 0
      vertex 2.87087 3.43826 0
      vertex 3.57798 4.14537 0
    endloop
  endfacet
  facet normal -0 0 -1
    outer loop
      vertex 4.28509 3.43826 0
      vertex 2.78249 3.34987 0
      vertex 2.87087 3.43826 0
    endloop
  endfacet
  facet normal 0 0 -1
    outer loop
      vertex 6.93674 6.08991 0
      vertex 15 -0.382359 0
      vertex 14.7149 -1.68826 0
    endloop
  endfacet
  facet normal 0 0 -1
    outer loop
      vertex 15 -0.382359 0
      vertex 6.93674 6.08991 0
      vertex 7.02513 7.59251 0
    endloop
  endfacet
  facet normal 0 0 -1
    outer loop
      vertex 6.93674 6.08991 0
      vertex 6.93674 7.50413 0
      vertex 7.02513 7.59251 0
    endloop
  endfacet
  facet normal 0 0 -1
    outer loop
      vertex 6.93674 6.08991 0
      vertex 6.22963 6.79702 0
      vertex 6.93674 7.50413 0
    endloop
  endfacet
  facet normal 0 0 -1
    outer loop
      vertex 4.28509 3.43826 0
      vertex 6.22963 6.79702 0
      vertex 6.93674 6.08991 0
    endloop
  endfacet
  facet normal 0 0 -1
    outer loop
      vertex 6.22963 6.79702 0
      vertex 4.28509 3.43826 0
      vertex 3.57798 4.14537 0
    endloop
  endfacet
  facet normal 0 0 -1
    outer loop
      vertex 15.422 -2.39537 0
      vertex 16 -1.81739 0
      vertex 16 -2.97335 0
    endloop
  endfacet
  facet normal 0 0 -1
    outer loop
      vertex 14.7149 -1.68826 0
      vertex 16 -1.81739 0
      vertex 15.422 -2.39537 0
    endloop
  endfacet
  facet normal 0 0 -1
    outer loop
      vertex 16 -1.81739 0
      vertex 14.7149 -1.68826 0
      vertex 16 -1.38236 0
    endloop
  endfacet
  facet normal -0 0 -1
    outer loop
      vertex 16.2175 -1.59987 0
      vertex 16 -1.81739 0
      vertex 16 -1.38236 0
    endloop
  endfacet
  facet normal 0 0 -1
    outer loop
      vertex 20.75 -9.1 0
      vertex 19.75 -8.1 0
      vertex 20.75 12.9 0
    endloop
  endfacet
  facet normal 0 0 -1
    outer loop
      vertex 16.3059 -8.58255 0
      vertex 19.75 -8.1 0
      vertex 20.75 -9.1 0
    endloop
  endfacet
  facet normal -0 0 -1
    outer loop
      vertex 19.75 -8.1 0
      vertex 16.3059 -8.58255 0
      vertex 16.7885 -8.1 0
    endloop
  endfacet
  facet normal 0 0 -1
    outer loop
      vertex 15.7885 -9.1 0
      vertex 16.3059 -8.58255 0
      vertex 20.75 -9.1 0
    endloop
  endfacet
  facet normal 0 0 -1
    outer loop
      vertex 15.4091 -9.1 0
      vertex 15.7885 -9.1 0
      vertex 15.5988 -9.28966 0
    endloop
  endfacet
  facet normal 0 0 -1
    outer loop
      vertex 15 -8.69086 0
      vertex 15.7885 -9.1 0
      vertex 15.4091 -9.1 0
    endloop
  endfacet
  facet normal 0 0 -1
    outer loop
      vertex 15 -8.69086 0
      vertex 15.4091 -9.1 0
      vertex 15 -9.1 0
    endloop
  endfacet
  facet normal 0 0 -1
    outer loop
      vertex 15.7885 -9.1 0
      vertex 15 -8.69086 0
      vertex 16.3059 -8.58255 0
    endloop
  endfacet
  facet normal 0 0 -1
    outer loop
      vertex 15 -8.69086 0
      vertex 12.7704 -5.04702 0
      vertex 16.3059 -8.58255 0
    endloop
  endfacet
  facet normal 0 -0 -1
    outer loop
      vertex 12.7704 -5.04702 0
      vertex 15 -8.69086 0
      vertex 12.0633 -5.75413 0
    endloop
  endfacet
  facet normal 0 0 -1
    outer loop
      vertex 19.75 11.9 0
      vertex 20.75 12.9 0
      vertex 19.75 -8.1 0
    endloop
  endfacet
  facet normal 0 0 -1
    outer loop
      vertex 16 11.9 0
      vertex 20.75 12.9 0
      vertex 19.75 11.9 0
    endloop
  endfacet
  facet normal 0 0 -1
    outer loop
      vertex 16 -1.38236 0
      vertex 15 -0.382359 0
      vertex 16 11.9 0
    endloop
  endfacet
  facet normal 0 0 -1
    outer loop
      vertex 16 11.9 0
      vertex 15 12.9 0
      vertex 20.75 12.9 0
    endloop
  endfacet
  facet normal 0 0 -1
    outer loop
      vertex 15 12.9 0
      vertex 16 11.9 0
      vertex 15 -0.382359 0
    endloop
  endfacet
  facet normal -0.587785 -0.809017 0
    outer loop
      vertex -7.36044 -8.17459 0
      vertex -5.5 -9.52628 7
      vertex -7.36044 -8.17459 7
    endloop
  endfacet
  facet normal -0.587785 -0.809017 -0
    outer loop
      vertex -5.5 -9.52628 7
      vertex -7.36044 -8.17459 0
      vertex -5.5 -9.52628 0
    endloop
  endfacet
  facet normal -0.866025 -0.5 0
    outer loop
      vertex -8.89919 -6.46564 0
      vertex -10.049 -4.4741 7
      vertex -10.049 -4.4741 0
    endloop
  endfacet
  facet normal -0.866025 -0.5 0
    outer loop
      vertex -10.049 -4.4741 7
      vertex -8.89919 -6.46564 0
      vertex -8.89919 -6.46564 7
    endloop
  endfacet
  facet normal -0.743145 -0.66913 0
    outer loop
      vertex -7.36044 -8.17459 0
      vertex -8.89919 -6.46564 7
      vertex -8.89919 -6.46564 0
    endloop
  endfacet
  facet normal -0.743145 -0.66913 0
    outer loop
      vertex -8.89919 -6.46564 7
      vertex -7.36044 -8.17459 0
      vertex -7.36044 -8.17459 7
    endloop
  endfacet
  facet normal -0.994522 -0.104529 0
    outer loop
      vertex -10.7596 -2.28703 0
      vertex -11 0 7
      vertex -11 0 0
    endloop
  endfacet
  facet normal -0.994522 -0.104529 0
    outer loop
      vertex -11 0 7
      vertex -10.7596 -2.28703 0
      vertex -10.7596 -2.28703 7
    endloop
  endfacet
  facet normal -0.207912 -0.978148 0
    outer loop
      vertex -3.39919 -10.4616 0
      vertex -1.14981 -10.9397 7
      vertex -3.39919 -10.4616 7
    endloop
  endfacet
  facet normal -0.207912 -0.978148 -0
    outer loop
      vertex -1.14981 -10.9397 7
      vertex -3.39919 -10.4616 0
      vertex -1.14981 -10.9397 0
    endloop
  endfacet
  facet normal -0.951057 -0.309017 0
    outer loop
      vertex -10.049 -4.4741 0
      vertex -10.7596 -2.28703 7
      vertex -10.7596 -2.28703 0
    endloop
  endfacet
  facet normal -0.951057 -0.309017 0
    outer loop
      vertex -10.7596 -2.28703 7
      vertex -10.049 -4.4741 0
      vertex -10.049 -4.4741 7
    endloop
  endfacet
  facet normal -0.406737 -0.913545 0
    outer loop
      vertex -5.5 -9.52628 0
      vertex -3.39919 -10.4616 7
      vertex -5.5 -9.52628 7
    endloop
  endfacet
  facet normal -0.406737 -0.913545 -0
    outer loop
      vertex -3.39919 -10.4616 7
      vertex -5.5 -9.52628 0
      vertex -3.39919 -10.4616 0
    endloop
  endfacet
  facet normal 1 -0 0
    outer loop
      vertex -6.4274 -0.968774 7
      vertex -6.4274 0.968774 0
      vertex -6.4274 0.968774 7
    endloop
  endfacet
  facet normal 1 0 0
    outer loop
      vertex -6.4274 0.968774 0
      vertex -6.4274 -0.968774 7
      vertex -6.4274 -0.968774 0
    endloop
  endfacet
  facet normal 0.0747297 -0.997204 0
    outer loop
      vertex -1.44639 6.33703 0
      vertex -0.61405 6.39941 7
      vertex -1.44639 6.33703 7
    endloop
  endfacet
  facet normal 0.0747297 -0.997204 0
    outer loop
      vertex -0.61405 6.39941 7
      vertex -1.44639 6.33703 0
      vertex -0.61405 6.39941 0
    endloop
  endfacet
  facet normal 0.826239 -0.56332 0
    outer loop
      vertex -5.8563 2.82024 7
      vertex -4.76484 4.42112 0
      vertex -4.76484 4.42112 7
    endloop
  endfacet
  facet normal 0.826239 -0.56332 0
    outer loop
      vertex -4.76484 4.42112 0
      vertex -5.8563 2.82024 7
      vertex -5.8563 2.82024 0
    endloop
  endfacet
  facet normal 0.955573 -0.294755 0
    outer loop
      vertex -6.4274 0.968774 7
      vertex -5.8563 2.82024 0
      vertex -5.8563 2.82024 7
    endloop
  endfacet
  facet normal 0.955573 -0.294755 0
    outer loop
      vertex -5.8563 2.82024 0
      vertex -6.4274 0.968774 7
      vertex -6.4274 0.968774 0
    endloop
  endfacet
  facet normal 0.62349 -0.781832 0
    outer loop
      vertex -4.76484 4.42112 0
      vertex -3.25 5.62916 7
      vertex -4.76484 4.42112 7
    endloop
  endfacet
  facet normal 0.62349 -0.781832 0
    outer loop
      vertex -3.25 5.62916 7
      vertex -4.76484 4.42112 0
      vertex -3.25 5.62916 0
    endloop
  endfacet
  facet normal 0.365341 -0.930874 0
    outer loop
      vertex -3.25 5.62916 0
      vertex -1.44639 6.33703 7
      vertex -3.25 5.62916 7
    endloop
  endfacet
  facet normal 0.365341 -0.930874 0
    outer loop
      vertex -1.44639 6.33703 7
      vertex -3.25 5.62916 0
      vertex -1.44639 6.33703 0
    endloop
  endfacet
  facet normal 0.365341 0.930874 -0
    outer loop
      vertex -1.44639 -6.33703 0
      vertex -3.25 -5.62916 7
      vertex -1.44639 -6.33703 7
    endloop
  endfacet
  facet normal 0.365341 0.930874 0
    outer loop
      vertex -3.25 -5.62916 7
      vertex -1.44639 -6.33703 0
      vertex -3.25 -5.62916 0
    endloop
  endfacet
  facet normal 0.826239 0.56332 0
    outer loop
      vertex -4.76484 -4.42112 7
      vertex -5.8563 -2.82024 0
      vertex -5.8563 -2.82024 7
    endloop
  endfacet
  facet normal 0.826239 0.56332 0
    outer loop
      vertex -5.8563 -2.82024 0
      vertex -4.76484 -4.42112 7
      vertex -4.76484 -4.42112 0
    endloop
  endfacet
  facet normal 0.955573 0.294755 0
    outer loop
      vertex -5.8563 -2.82024 7
      vertex -6.4274 -0.968774 0
      vertex -6.4274 -0.968774 7
    endloop
  endfacet
  facet normal 0.955573 0.294755 0
    outer loop
      vertex -6.4274 -0.968774 0
      vertex -5.8563 -2.82024 7
      vertex -5.8563 -2.82024 0
    endloop
  endfacet
  facet normal 0.62349 0.781831 -0
    outer loop
      vertex -3.25 -5.62916 0
      vertex -4.76484 -4.42112 7
      vertex -3.25 -5.62916 7
    endloop
  endfacet
  facet normal 0.62349 0.781831 0
    outer loop
      vertex -4.76484 -4.42112 7
      vertex -3.25 -5.62916 0
      vertex -4.76484 -4.42112 0
    endloop
  endfacet
  facet normal 0.0747299 0.997204 -0
    outer loop
      vertex 0 -6.44542 0
      vertex -1.44639 -6.33703 7
      vertex 0 -6.44542 7
    endloop
  endfacet
  facet normal 0.0747299 0.997204 0
    outer loop
      vertex -1.44639 -6.33703 7
      vertex 0 -6.44542 0
      vertex -1.44639 -6.33703 0
    endloop
  endfacet
  facet normal 1 -0 0
    outer loop
      vertex 0 -10.9397 7
      vertex 0 -6.44542 0
      vertex 0 -6.44542 7
    endloop
  endfacet
  facet normal 1 0 0
    outer loop
      vertex 0 -6.44542 0
      vertex 0 -10.9397 7
      vertex 0 -10.9397 0
    endloop
  endfacet
  facet normal 0.994522 -0.104529 0
    outer loop
      vertex -10 0 5
      vertex -9.78148 2.07912 0
      vertex -9.78148 2.07912 5
    endloop
  endfacet
  facet normal 0.994522 -0.104529 0
    outer loop
      vertex -9.78148 2.07912 0
      vertex -10 0 5
      vertex -10 0 0
    endloop
  endfacet
  facet normal 0 -1 0
    outer loop
      vertex -1.04528 9.94522 0
      vertex 1.04528 9.94522 5
      vertex -1.04528 9.94522 5
    endloop
  endfacet
  facet normal 0 -1 -0
    outer loop
      vertex 1.04528 9.94522 5
      vertex -1.04528 9.94522 0
      vertex 1.04528 9.94522 0
    endloop
  endfacet
  facet normal 0 1 -0
    outer loop
      vertex -1 -9.94522 0
      vertex -1.04528 -9.94522 5
      vertex -1 -9.94522 5
    endloop
  endfacet
  facet normal 0 1 0
    outer loop
      vertex -1.04528 -9.94522 5
      vertex -1 -9.94522 0
      vertex -1.04528 -9.94522 0
    endloop
  endfacet
  facet normal 0.743145 -0.669131 0
    outer loop
      vertex -8.09017 5.87785 5
      vertex -6.69131 7.43145 0
      vertex -6.69131 7.43145 5
    endloop
  endfacet
  facet normal 0.743145 -0.669131 0
    outer loop
      vertex -6.69131 7.43145 0
      vertex -8.09017 5.87785 5
      vertex -8.09017 5.87785 0
    endloop
  endfacet
  facet normal 0.866026 -0.5 0
    outer loop
      vertex -9.13545 4.06737 5
      vertex -8.09017 5.87785 0
      vertex -8.09017 5.87785 5
    endloop
  endfacet
  facet normal 0.866026 -0.5 0
    outer loop
      vertex -8.09017 5.87785 0
      vertex -9.13545 4.06737 5
      vertex -9.13545 4.06737 0
    endloop
  endfacet
  facet normal 0.406737 -0.913545 0
    outer loop
      vertex -5 8.66025 0
      vertex -3.09017 9.51056 5
      vertex -5 8.66025 5
    endloop
  endfacet
  facet normal 0.406737 -0.913545 0
    outer loop
      vertex -3.09017 9.51056 5
      vertex -5 8.66025 0
      vertex -3.09017 9.51056 0
    endloop
  endfacet
  facet normal -0.207912 -0.978148 0
    outer loop
      vertex 1.04528 9.94522 0
      vertex 2.08563 9.72409 5
      vertex 1.04528 9.94522 5
    endloop
  endfacet
  facet normal -0.207912 -0.978148 -0
    outer loop
      vertex 2.08563 9.72409 5
      vertex 1.04528 9.94522 0
      vertex 2.08563 9.72409 0
    endloop
  endfacet
  facet normal 0.951057 -0.309017 0
    outer loop
      vertex -9.78148 2.07912 5
      vertex -9.13545 4.06737 0
      vertex -9.13545 4.06737 5
    endloop
  endfacet
  facet normal 0.951057 -0.309017 0
    outer loop
      vertex -9.13545 4.06737 0
      vertex -9.78148 2.07912 5
      vertex -9.78148 2.07912 0
    endloop
  endfacet
  facet normal 0 0 -1
    outer loop
      vertex -1.04528 -9.94522 5
      vertex -1 -7.36835 5
      vertex -1 -9.94522 5
    endloop
  endfacet
  facet normal 0 0 -1
    outer loop
      vertex -1.04528 -9.94522 5
      vertex -1.94114 -7.24444 5
      vertex -1 -7.36835 5
    endloop
  endfacet
  facet normal 0 0 -1
    outer loop
      vertex -3.09017 -9.51056 5
      vertex -1.94114 -7.24444 5
      vertex -1.04528 -9.94522 5
    endloop
  endfacet
  facet normal 0 0 -1
    outer loop
      vertex -3.09017 -9.51056 5
      vertex -3.75 -6.49519 5
      vertex -1.94114 -7.24444 5
    endloop
  endfacet
  facet normal 0 0 -1
    outer loop
      vertex -5 -8.66025 5
      vertex -3.75 -6.49519 5
      vertex -3.09017 -9.51056 5
    endloop
  endfacet
  facet normal 0 0 -1
    outer loop
      vertex -6.69131 -7.43145 5
      vertex -3.75 -6.49519 5
      vertex -5 -8.66025 5
    endloop
  endfacet
  facet normal -0 0 -1
    outer loop
      vertex -3.75 -6.49519 5
      vertex -6.69131 -7.43145 5
      vertex -5.3033 -5.3033 5
    endloop
  endfacet
  facet normal 0 0 -1
    outer loop
      vertex -8.09017 -5.87785 5
      vertex -5.3033 -5.3033 5
      vertex -6.69131 -7.43145 5
    endloop
  endfacet
  facet normal -0 0 -1
    outer loop
      vertex -5.3033 -5.3033 5
      vertex -8.09017 -5.87785 5
      vertex -6.49519 -3.75 5
    endloop
  endfacet
  facet normal 0 0 -1
    outer loop
      vertex -9.13545 -4.06737 5
      vertex -6.49519 -3.75 5
      vertex -8.09017 -5.87785 5
    endloop
  endfacet
  facet normal -0 0 -1
    outer loop
      vertex -6.49519 -3.75 5
      vertex -9.13545 -4.06737 5
      vertex -7.24444 -1.94114 5
    endloop
  endfacet
  facet normal -0 0 -1
    outer loop
      vertex 0.0424463 7.6809 5
      vertex -0.159448 7.47901 5
      vertex 0.0424461 7.6809 5
    endloop
  endfacet
  facet normal 0 0 -1
    outer loop
      vertex 0.0424461 7.6809 5
      vertex 1.04528 9.94522 5
      vertex 2.08563 9.72409 5
    endloop
  endfacet
  facet normal 0 0 -1
    outer loop
      vertex -1.04528 9.94522 5
      vertex 0.0424461 7.6809 5
      vertex -0.159448 7.47901 5
    endloop
  endfacet
  facet normal 0 0 -1
    outer loop
      vertex 0.0424461 7.6809 5
      vertex -1.04528 9.94522 5
      vertex 1.04528 9.94522 5
    endloop
  endfacet
  facet normal 0 0 -1
    outer loop
      vertex -1.94114 7.24444 5
      vertex -1.04528 9.94522 5
      vertex -0.159448 7.47901 5
    endloop
  endfacet
  facet normal 0 0 -1
    outer loop
      vertex -1.94114 7.24444 5
      vertex -3.09017 9.51056 5
      vertex -1.04528 9.94522 5
    endloop
  endfacet
  facet normal 0 0 -1
    outer loop
      vertex -3.75 6.49519 5
      vertex -3.09017 9.51056 5
      vertex -1.94114 7.24444 5
    endloop
  endfacet
  facet normal 0 0 -1
    outer loop
      vertex -3.75 6.49519 5
      vertex -5 8.66025 5
      vertex -3.09017 9.51056 5
    endloop
  endfacet
  facet normal 0 0 -1
    outer loop
      vertex -6.69131 7.43145 5
      vertex -3.75 6.49519 5
      vertex -5.3033 5.3033 5
    endloop
  endfacet
  facet normal 0 0 -1
    outer loop
      vertex -8.09017 5.87785 5
      vertex -5.3033 5.3033 5
      vertex -6.49519 3.75 5
    endloop
  endfacet
  facet normal 0 0 -1
    outer loop
      vertex -3.75 6.49519 5
      vertex -6.69131 7.43145 5
      vertex -5 8.66025 5
    endloop
  endfacet
  facet normal 0 0 -1
    outer loop
      vertex -9.13545 4.06737 5
      vertex -6.49519 3.75 5
      vertex -7.24444 1.94114 5
    endloop
  endfacet
  facet normal 0 0 -1
    outer loop
      vertex -9.78148 2.07912 5
      vertex -7.24444 1.94114 5
      vertex -7.5 0 5
    endloop
  endfacet
  facet normal 0 0 -1
    outer loop
      vertex -5.3033 5.3033 5
      vertex -8.09017 5.87785 5
      vertex -6.69131 7.43145 5
    endloop
  endfacet
  facet normal 0 0 -1
    outer loop
      vertex -9.78148 -2.07912 5
      vertex -7.24444 -1.94114 5
      vertex -9.13545 -4.06737 5
    endloop
  endfacet
  facet normal -0 0 -1
    outer loop
      vertex -7.24444 -1.94114 5
      vertex -9.78148 -2.07912 5
      vertex -7.5 0 5
    endloop
  endfacet
  facet normal 0 0 -1
    outer loop
      vertex -6.49519 3.75 5
      vertex -9.13545 4.06737 5
      vertex -8.09017 5.87785 5
    endloop
  endfacet
  facet normal 0 0 -1
    outer loop
      vertex -10 0 5
      vertex -7.5 0 5
      vertex -9.78148 -2.07912 5
    endloop
  endfacet
  facet normal 0 0 -1
    outer loop
      vertex -7.24444 1.94114 5
      vertex -9.78148 2.07912 5
      vertex -9.13545 4.06737 5
    endloop
  endfacet
  facet normal 0 0 -1
    outer loop
      vertex -7.5 0 5
      vertex -10 0 5
      vertex -9.78148 2.07912 5
    endloop
  endfacet
  facet normal 0.587785 -0.809017 0
    outer loop
      vertex -6.69131 7.43145 0
      vertex -5 8.66025 5
      vertex -6.69131 7.43145 5
    endloop
  endfacet
  facet normal 0.587785 -0.809017 0
    outer loop
      vertex -5 8.66025 5
      vertex -6.69131 7.43145 0
      vertex -5 8.66025 0
    endloop
  endfacet
  facet normal 0.207911 -0.978148 0
    outer loop
      vertex -3.09017 9.51056 0
      vertex -1.04528 9.94522 5
      vertex -3.09017 9.51056 5
    endloop
  endfacet
  facet normal 0.207911 -0.978148 0
    outer loop
      vertex -1.04528 9.94522 5
      vertex -3.09017 9.51056 0
      vertex -1.04528 9.94522 0
    endloop
  endfacet
  facet normal 0.866026 0.5 0
    outer loop
      vertex -8.09017 -5.87785 5
      vertex -9.13545 -4.06737 0
      vertex -9.13545 -4.06737 5
    endloop
  endfacet
  facet normal 0.866026 0.5 0
    outer loop
      vertex -9.13545 -4.06737 0
      vertex -8.09017 -5.87785 5
      vertex -8.09017 -5.87785 0
    endloop
  endfacet
  facet normal 0.994522 0.104529 0
    outer loop
      vertex -9.78148 -2.07912 5
      vertex -10 0 0
      vertex -10 0 5
    endloop
  endfacet
  facet normal 0.994522 0.104529 0
    outer loop
      vertex -10 0 0
      vertex -9.78148 -2.07912 5
      vertex -9.78148 -2.07912 0
    endloop
  endfacet
  facet normal 0.743145 0.669131 0
    outer loop
      vertex -6.69131 -7.43145 5
      vertex -8.09017 -5.87785 0
      vertex -8.09017 -5.87785 5
    endloop
  endfacet
  facet normal 0.743145 0.669131 0
    outer loop
      vertex -8.09017 -5.87785 0
      vertex -6.69131 -7.43145 5
      vertex -6.69131 -7.43145 0
    endloop
  endfacet
  facet normal 0.951057 0.309017 0
    outer loop
      vertex -9.13545 -4.06737 5
      vertex -9.78148 -2.07912 0
      vertex -9.78148 -2.07912 5
    endloop
  endfacet
  facet normal 0.951057 0.309017 0
    outer loop
      vertex -9.78148 -2.07912 0
      vertex -9.13545 -4.06737 5
      vertex -9.13545 -4.06737 0
    endloop
  endfacet
  facet normal 0.587785 0.809017 -0
    outer loop
      vertex -5 -8.66025 0
      vertex -6.69131 -7.43145 5
      vertex -5 -8.66025 5
    endloop
  endfacet
  facet normal 0.587785 0.809017 0
    outer loop
      vertex -6.69131 -7.43145 5
      vertex -5 -8.66025 0
      vertex -6.69131 -7.43145 0
    endloop
  endfacet
  facet normal 0.406737 0.913545 -0
    outer loop
      vertex -3.09017 -9.51056 0
      vertex -5 -8.66025 5
      vertex -3.09017 -9.51056 5
    endloop
  endfacet
  facet normal 0.406737 0.913545 0
    outer loop
      vertex -5 -8.66025 5
      vertex -3.09017 -9.51056 0
      vertex -5 -8.66025 0
    endloop
  endfacet
  facet normal 0.207911 0.978148 -0
    outer loop
      vertex -1.04528 -9.94522 0
      vertex -3.09017 -9.51056 5
      vertex -1.04528 -9.94522 5
    endloop
  endfacet
  facet normal 0.207911 0.978148 0
    outer loop
      vertex -3.09017 -9.51056 5
      vertex -1.04528 -9.94522 0
      vertex -3.09017 -9.51056 0
    endloop
  endfacet
  facet normal -0.991445 0.130527 0
    outer loop
      vertex -7.5 0 0
      vertex -7.24444 1.94114 5
      vertex -7.24444 1.94114 0
    endloop
  endfacet
  facet normal -0.991445 0.130527 0
    outer loop
      vertex -7.24444 1.94114 5
      vertex -7.5 0 0
      vertex -7.5 0 5
    endloop
  endfacet
  facet normal -0.130527 -0.991445 0
    outer loop
      vertex -1.94114 -7.24444 0
      vertex -1 -7.36835 5
      vertex -1.94114 -7.24444 5
    endloop
  endfacet
  facet normal -0.130527 -0.991445 -0
    outer loop
      vertex -1 -7.36835 5
      vertex -1.94114 -7.24444 0
      vertex -1 -7.36835 0
    endloop
  endfacet
  facet normal -0.608761 0.793354 0
    outer loop
      vertex -3.75 6.49519 0
      vertex -5.3033 5.3033 5
      vertex -3.75 6.49519 5
    endloop
  endfacet
  facet normal -0.608761 0.793354 0
    outer loop
      vertex -5.3033 5.3033 5
      vertex -3.75 6.49519 0
      vertex -5.3033 5.3033 0
    endloop
  endfacet
  facet normal -0.130527 0.991445 0
    outer loop
      vertex -0.159448 7.47901 0
      vertex -1.94114 7.24444 5
      vertex -0.159448 7.47901 5
    endloop
  endfacet
  facet normal -0.130527 0.991445 0
    outer loop
      vertex -1.94114 7.24444 5
      vertex -0.159448 7.47901 0
      vertex -1.94114 7.24444 0
    endloop
  endfacet
  facet normal -0.608761 -0.793354 0
    outer loop
      vertex -5.3033 -5.3033 0
      vertex -3.75 -6.49519 5
      vertex -5.3033 -5.3033 5
    endloop
  endfacet
  facet normal -0.608761 -0.793354 -0
    outer loop
      vertex -3.75 -6.49519 5
      vertex -5.3033 -5.3033 0
      vertex -3.75 -6.49519 0
    endloop
  endfacet
  facet normal -0.991445 -0.130527 0
    outer loop
      vertex -7.24444 -1.94114 0
      vertex -7.5 0 5
      vertex -7.5 0 0
    endloop
  endfacet
  facet normal -0.991445 -0.130527 0
    outer loop
      vertex -7.5 0 5
      vertex -7.24444 -1.94114 0
      vertex -7.24444 -1.94114 5
    endloop
  endfacet
  facet normal -0.793354 0.608761 0
    outer loop
      vertex -6.49519 3.75 0
      vertex -5.3033 5.3033 5
      vertex -5.3033 5.3033 0
    endloop
  endfacet
  facet normal -0.793354 0.608761 0
    outer loop
      vertex -5.3033 5.3033 5
      vertex -6.49519 3.75 0
      vertex -6.49519 3.75 5
    endloop
  endfacet
  facet normal -0.923879 0.382684 0
    outer loop
      vertex -7.24444 1.94114 0
      vertex -6.49519 3.75 5
      vertex -6.49519 3.75 0
    endloop
  endfacet
  facet normal -0.923879 0.382684 0
    outer loop
      vertex -6.49519 3.75 5
      vertex -7.24444 1.94114 0
      vertex -7.24444 1.94114 5
    endloop
  endfacet
  facet normal -0.382684 0.923879 0
    outer loop
      vertex -1.94114 7.24444 0
      vertex -3.75 6.49519 5
      vertex -1.94114 7.24444 5
    endloop
  endfacet
  facet normal -0.382684 0.923879 0
    outer loop
      vertex -3.75 6.49519 5
      vertex -1.94114 7.24444 0
      vertex -3.75 6.49519 0
    endloop
  endfacet
  facet normal -0.382683 -0.92388 0
    outer loop
      vertex -3.75 -6.49519 0
      vertex -1.94114 -7.24444 5
      vertex -3.75 -6.49519 5
    endloop
  endfacet
  facet normal -0.382683 -0.92388 -0
    outer loop
      vertex -1.94114 -7.24444 5
      vertex -3.75 -6.49519 0
      vertex -1.94114 -7.24444 0
    endloop
  endfacet
  facet normal -0.923879 -0.382684 0
    outer loop
      vertex -6.49519 -3.75 0
      vertex -7.24444 -1.94114 5
      vertex -7.24444 -1.94114 0
    endloop
  endfacet
  facet normal -0.923879 -0.382684 0
    outer loop
      vertex -7.24444 -1.94114 5
      vertex -6.49519 -3.75 0
      vertex -6.49519 -3.75 5
    endloop
  endfacet
  facet normal -0.793354 -0.608761 0
    outer loop
      vertex -5.3033 -5.3033 0
      vertex -6.49519 -3.75 5
      vertex -6.49519 -3.75 0
    endloop
  endfacet
  facet normal -0.793354 -0.608761 0
    outer loop
      vertex -6.49519 -3.75 5
      vertex -5.3033 -5.3033 0
      vertex -5.3033 -5.3033 5
    endloop
  endfacet
  facet normal -1 0 0
    outer loop
      vertex -1 -9.94522 0
      vertex -1 -7.36835 5
      vertex -1 -7.36835 0
    endloop
  endfacet
  facet normal -1 -0 0
    outer loop
      vertex -1 -7.36835 5
      vertex -1 -9.94522 0
      vertex -1 -9.94522 5
    endloop
  endfacet
  facet normal 0.707107 -0.707107 0
    outer loop
      vertex -0.61405 6.39941 7
      vertex -0.35216 6.6613 0
      vertex -0.35216 6.6613 7
    endloop
  endfacet
  facet normal 0.707107 -0.707107 0
    outer loop
      vertex -0.35216 6.6613 0
      vertex -0.61405 6.39941 7
      vertex -0.61405 6.39941 0
    endloop
  endfacet
  facet normal -0.707107 0.707106 0
    outer loop
      vertex 2.92414 10.5626 0
      vertex 3.4012 11.0397 7
      vertex 3.4012 11.0397 0
    endloop
  endfacet
  facet normal -0.707107 0.707106 0
    outer loop
      vertex 3.4012 11.0397 7
      vertex 2.92414 10.5626 0
      vertex 2.92414 10.5626 7
    endloop
  endfacet
  facet normal -0.707107 0.707106 0
    outer loop
      vertex -0.159448 7.47901 0
      vertex 0.0424463 7.6809 5
      vertex 0.0424463 7.6809 0
    endloop
  endfacet
  facet normal -0.707107 0.707106 0
    outer loop
      vertex 0.0424463 7.6809 5
      vertex -0.159448 7.47901 0
      vertex -0.159448 7.47901 5
    endloop
  endfacet
  facet normal 0.707107 -0.707107 0
    outer loop
      vertex 15.5988 -9.28966 7
      vertex 15.7885 -9.1 0
      vertex 15.7885 -9.1 7
    endloop
  endfacet
  facet normal 0.707107 -0.707107 0
    outer loop
      vertex 15.7885 -9.1 0
      vertex 15.5988 -9.28966 7
      vertex 15.5988 -9.28966 0
    endloop
  endfacet
  facet normal 0.707107 0.707107 0
    outer loop
      vertex 6.93674 7.50413 7
      vertex 3.4012 11.0397 0
      vertex 3.4012 11.0397 7
    endloop
  endfacet
  facet normal 0.707107 0.707107 0
    outer loop
      vertex 3.4012 11.0397 0
      vertex 6.93674 7.50413 7
      vertex 6.93674 7.50413 0
    endloop
  endfacet
  facet normal -0.707107 -0.707107 0
    outer loop
      vertex 15.5988 -9.28966 0
      vertex 15.4091 -9.1 7
      vertex 15.4091 -9.1 0
    endloop
  endfacet
  facet normal -0.707107 -0.707107 0
    outer loop
      vertex 15.4091 -9.1 7
      vertex 15.5988 -9.28966 0
      vertex 15.5988 -9.28966 7
    endloop
  endfacet
  facet normal -0.707107 -0.707107 0
    outer loop
      vertex 2.87087 3.43826 0
      vertex -0.35216 6.6613 7
      vertex -0.35216 6.6613 0
    endloop
  endfacet
  facet normal -0.707107 -0.707107 0
    outer loop
      vertex -0.35216 6.6613 7
      vertex 2.87087 3.43826 0
      vertex 2.87087 3.43826 7
    endloop
  endfacet
  facet normal -0.707107 -0.707107 0
    outer loop
      vertex 12.0633 -5.75413 0
      vertex 15 -8.69086 7
      vertex 12.0633 -5.75413 7
    endloop
  endfacet
  facet normal -0.707107 -0.707107 -0
    outer loop
      vertex 15 -8.69086 7
      vertex 12.0633 -5.75413 0
      vertex 15 -8.69086 0
    endloop
  endfacet
  facet normal 0 0 -1
    outer loop
      vertex 19.75 -8.1 6
      vertex 16 -2.97335 6
      vertex 16.2175 -1.59987 6
    endloop
  endfacet
  facet normal 0 0 -1
    outer loop
      vertex 16.7885 -8.1 6
      vertex 12.7704 -5.04702 6
      vertex 16 -2.97335 6
    endloop
  endfacet
  facet normal -0 0 -1
    outer loop
      vertex 16 -2.97335 6
      vertex 12.7704 -5.04702 6
      vertex 15.422 -2.39537 6
    endloop
  endfacet
  facet normal 0 0 -1
    outer loop
      vertex 16 -2.97335 6
      vertex 19.75 -8.1 6
      vertex 16.7885 -8.1 6
    endloop
  endfacet
  facet normal 0 0 -1
    outer loop
      vertex 12.7704 -5.04702 6
      vertex 16.7885 -8.1 6
      vertex 16.3059 -8.58255 6
    endloop
  endfacet
  facet normal 0 0 -1
    outer loop
      vertex 19.75 -8.1 6
      vertex 16.2175 -1.59987 6
      vertex 19.75 11.9 6
    endloop
  endfacet
  facet normal 0 0 -1
    outer loop
      vertex 16 -1.38236 6
      vertex 19.75 11.9 6
      vertex 16.2175 -1.59987 6
    endloop
  endfacet
  facet normal -0 0 -1
    outer loop
      vertex 19.75 11.9 6
      vertex 16 -1.38236 6
      vertex 16 11.9 6
    endloop
  endfacet
  facet normal 0 0 -1
    outer loop
      vertex 16.2175 -1.59987 6
      vertex 16 -2.97335 6
      vertex 16 -1.81739 6
    endloop
  endfacet
  facet normal 0 0 -1
    outer loop
      vertex 3.57798 4.14537 6
      vertex 3.0066 10.0201 6
      vertex 6.22963 6.79702 6
    endloop
  endfacet
  facet normal 0 0 -1
    outer loop
      vertex 0.0424461 7.6809 6
      vertex 3.0066 10.0201 6
      vertex 3.57798 4.14537 6
    endloop
  endfacet
  facet normal -0 0 -1
    outer loop
      vertex 3.0066 10.0201 6
      vertex 0.0424461 7.6809 6
      vertex 2.6941 10.3326 6
    endloop
  endfacet
  facet normal 0 0 -1
    outer loop
      vertex 12.0633 -4.33991 6
      vertex 6.93674 6.08991 6
      vertex 14.7149 -1.68826 6
    endloop
  endfacet
  facet normal 0 -0 -1
    outer loop
      vertex 6.93674 6.08991 6
      vertex 12.0633 -4.33991 6
      vertex 4.28509 3.43826 6
    endloop
  endfacet
  facet normal -0.707107 -0.707107 0
    outer loop
      vertex 3.0066 10.0201 0
      vertex 6.22963 6.79702 6
      vertex 3.0066 10.0201 6
    endloop
  endfacet
  facet normal -0.707107 -0.707107 -0
    outer loop
      vertex 6.22963 6.79702 6
      vertex 3.0066 10.0201 0
      vertex 6.22963 6.79702 0
    endloop
  endfacet
  facet normal -0.707107 -0.707107 0
    outer loop
      vertex 14.7149 -1.68826 0
      vertex 6.93674 6.08991 6
      vertex 6.93674 6.08991 0
    endloop
  endfacet
  facet normal -0.707107 -0.707107 0
    outer loop
      vertex 6.93674 6.08991 6
      vertex 14.7149 -1.68826 0
      vertex 14.7149 -1.68826 6
    endloop
  endfacet
  facet normal -1 0 0
    outer loop
      vertex 15 -9.1 0
      vertex 15 -8.69086 7
      vertex 15 -8.69086 0
    endloop
  endfacet
  facet normal -1 -0 0
    outer loop
      vertex 15 -8.69086 7
      vertex 15 -9.1 0
      vertex 15 -9.1 7
    endloop
  endfacet
  facet normal -1 0 0
    outer loop
      vertex 15 -0.382359 0
      vertex 15 12.9 7
      vertex 15 12.9 0
    endloop
  endfacet
  facet normal -1 -0 0
    outer loop
      vertex 15 12.9 7
      vertex 15 -0.382359 0
      vertex 15 -0.382359 7
    endloop
  endfacet
  facet normal 1 -0 0
    outer loop
      vertex 20.75 -9.1 7
      vertex 20.75 12.9 0
      vertex 20.75 12.9 7
    endloop
  endfacet
  facet normal 1 0 0
    outer loop
      vertex 20.75 12.9 0
      vertex 20.75 -9.1 7
      vertex 20.75 -9.1 0
    endloop
  endfacet
  facet normal 0 -1 0
    outer loop
      vertex 15 -9.1 0
      vertex 15.4091 -9.1 7
      vertex 15 -9.1 7
    endloop
  endfacet
  facet normal 0 -1 -0
    outer loop
      vertex 15.4091 -9.1 7
      vertex 15 -9.1 0
      vertex 15.4091 -9.1 0
    endloop
  endfacet
  facet normal 0 -1 0
    outer loop
      vertex 15.7885 -9.1 0
      vertex 20.75 -9.1 7
      vertex 15.7885 -9.1 7
    endloop
  endfacet
  facet normal 0 -1 -0
    outer loop
      vertex 20.75 -9.1 7
      vertex 15.7885 -9.1 0
      vertex 20.75 -9.1 0
    endloop
  endfacet
  facet normal 0 1 -0
    outer loop
      vertex 20.75 12.9 0
      vertex 15 12.9 7
      vertex 20.75 12.9 7
    endloop
  endfacet
  facet normal 0 1 0
    outer loop
      vertex 15 12.9 7
      vertex 20.75 12.9 0
      vertex 15 12.9 0
    endloop
  endfacet
  facet normal 1 -0 0
    outer loop
      vertex 16 -1.38236 6
      vertex 16 11.9 0
      vertex 16 11.9 6
    endloop
  endfacet
  facet normal 1 0 0
    outer loop
      vertex 16 11.9 0
      vertex 16 -1.38236 6
      vertex 16 -1.38236 0
    endloop
  endfacet
  facet normal 1 -0 0
    outer loop
      vertex 16 -2.97335 6
      vertex 16 -1.81739 0
      vertex 16 -1.81739 6
    endloop
  endfacet
  facet normal 1 0 0
    outer loop
      vertex 16 -1.81739 0
      vertex 16 -2.97335 6
      vertex 16 -2.97335 0
    endloop
  endfacet
  facet normal -1 0 0
    outer loop
      vertex 19.75 -8.1 0
      vertex 19.75 11.9 6
      vertex 19.75 11.9 0
    endloop
  endfacet
  facet normal -1 -0 0
    outer loop
      vertex 19.75 11.9 6
      vertex 19.75 -8.1 0
      vertex 19.75 -8.1 6
    endloop
  endfacet
  facet normal 0 -1 0
    outer loop
      vertex 16 11.9 0
      vertex 19.75 11.9 6
      vertex 16 11.9 6
    endloop
  endfacet
  facet normal 0 -1 -0
    outer loop
      vertex 19.75 11.9 6
      vertex 16 11.9 0
      vertex 19.75 11.9 0
    endloop
  endfacet
  facet normal 0 1 -0
    outer loop
      vertex 19.75 -8.1 0
      vertex 16.7885 -8.1 6
      vertex 19.75 -8.1 6
    endloop
  endfacet
  facet normal 0 1 0
    outer loop
      vertex 16.7885 -8.1 6
      vertex 19.75 -8.1 0
      vertex 16.7885 -8.1 0
    endloop
  endfacet
  facet normal 0.707107 -0.707107 0
    outer loop
      vertex 2.6941 10.3326 6
      vertex 2.08563 9.72409 5
      vertex 2.6941 10.3326 0
    endloop
  endfacet
  facet normal 0.707107 -0.707107 1.68587e-007
    outer loop
      vertex 0.0424461 7.6809 6
      vertex 2.08563 9.72409 5
      vertex 2.6941 10.3326 6
    endloop
  endfacet
  facet normal 0.707107 -0.707107 0
    outer loop
      vertex 2.08563 9.72409 5
      vertex 0.0424461 7.6809 6
      vertex 0.0424461 7.6809 5
    endloop
  endfacet
  facet normal 0.707107 -0.707107 0
    outer loop
      vertex 2.6941 10.3326 0
      vertex 2.08563 9.72409 5
      vertex 2.08563 9.72409 0
    endloop
  endfacet
  facet normal -0.707106 0.707107 0
    outer loop
      vertex 16.7885 -8.1 0
      vertex 16.3059 -8.58255 6
      vertex 16.7885 -8.1 6
    endloop
  endfacet
  facet normal -0.707106 0.707107 0
    outer loop
      vertex 16.3059 -8.58255 6
      vertex 16.7885 -8.1 0
      vertex 16.3059 -8.58255 0
    endloop
  endfacet
  facet normal -0.707107 -0.707107 0
    outer loop
      vertex 2.6941 10.3326 0
      vertex 3.0066 10.0201 6
      vertex 2.6941 10.3326 6
    endloop
  endfacet
  facet normal -0.707107 -0.707107 -0
    outer loop
      vertex 3.0066 10.0201 6
      vertex 2.6941 10.3326 0
      vertex 3.0066 10.0201 0
    endloop
  endfacet
  facet normal -0.707107 -0.707107 0
    outer loop
      vertex 15.422 -2.39537 0
      vertex 16 -2.97335 6
      vertex 15.422 -2.39537 6
    endloop
  endfacet
  facet normal -0.707107 -0.707107 -0
    outer loop
      vertex 16 -2.97335 6
      vertex 15.422 -2.39537 0
      vertex 16 -2.97335 0
    endloop
  endfacet
  facet normal 0.707107 0.707107 1.34343e-007
    outer loop
      vertex 3.57798 4.14537 6
      vertex 0.0424463 7.6809 5
      vertex 0.0424461 7.6809 6
    endloop
  endfacet
  facet normal 0.707107 0.707107 -0
    outer loop
      vertex 3.57798 4.14537 0
      vertex 0.0424463 7.6809 5
      vertex 3.57798 4.14537 6
    endloop
  endfacet
  facet normal 0.707107 0.707107 0
    outer loop
      vertex 0.0424463 7.6809 5
      vertex 3.57798 4.14537 0
      vertex 0.0424463 7.6809 0
    endloop
  endfacet
  facet normal 0 1 0
    outer loop
      vertex 0.0424461 7.6809 6
      vertex 0.0424463 7.6809 5
      vertex 0.0424461 7.6809 5
    endloop
  endfacet
  facet normal 0.707107 0.707107 -0
    outer loop
      vertex 16.3059 -8.58255 0
      vertex 12.7704 -5.04702 6
      vertex 16.3059 -8.58255 6
    endloop
  endfacet
  facet normal 0.707107 0.707107 0
    outer loop
      vertex 12.7704 -5.04702 6
      vertex 16.3059 -8.58255 0
      vertex 12.7704 -5.04702 0
    endloop
  endfacet
  facet normal 0.707107 0.707107 -0
    outer loop
      vertex 12.0633 -4.33991 0
      vertex 4.28509 3.43826 6
      vertex 12.0633 -4.33991 6
    endloop
  endfacet
  facet normal 0.707107 0.707107 0
    outer loop
      vertex 4.28509 3.43826 6
      vertex 12.0633 -4.33991 0
      vertex 4.28509 3.43826 0
    endloop
  endfacet
  facet normal -0.707106 0.707108 0
    outer loop
      vertex 2.87087 3.43826 0
      vertex 2.78249 3.34987 7
      vertex 2.87087 3.43826 7
    endloop
  endfacet
  facet normal -0.707106 0.707108 0
    outer loop
      vertex 2.78249 3.34987 7
      vertex 2.87087 3.43826 0
      vertex 2.78249 3.34987 0
    endloop
  endfacet
  facet normal -0.707107 0.707107 0
    outer loop
      vertex 6.93674 7.50413 0
      vertex 7.02513 7.59251 7
      vertex 7.02513 7.59251 0
    endloop
  endfacet
  facet normal -0.707107 0.707107 0
    outer loop
      vertex 7.02513 7.59251 7
      vertex 6.93674 7.50413 0
      vertex 6.93674 7.50413 7
    endloop
  endfacet
  facet normal -0.707107 0.707107 0
    outer loop
      vertex 3.57798 4.14537 0
      vertex 6.22963 6.79702 6
      vertex 6.22963 6.79702 0
    endloop
  endfacet
  facet normal -0.707107 0.707107 0
    outer loop
      vertex 6.22963 6.79702 6
      vertex 3.57798 4.14537 0
      vertex 3.57798 4.14537 6
    endloop
  endfacet
  facet normal 0.707107 -0.707107 0
    outer loop
      vertex 11.9749 -5.84251 7
      vertex 12.0633 -5.75413 0
      vertex 12.0633 -5.75413 7
    endloop
  endfacet
  facet normal 0.707107 -0.707107 0
    outer loop
      vertex 12.0633 -5.75413 0
      vertex 11.9749 -5.84251 7
      vertex 11.9749 -5.84251 0
    endloop
  endfacet
  facet normal 0.707107 -0.707106 0
    outer loop
      vertex 16 -1.81739 6
      vertex 16.2175 -1.59987 0
      vertex 16.2175 -1.59987 6
    endloop
  endfacet
  facet normal 0.707107 -0.707106 0
    outer loop
      vertex 16.2175 -1.59987 0
      vertex 16 -1.81739 6
      vertex 16 -1.81739 0
    endloop
  endfacet
  facet normal 0.707107 -0.707107 0
    outer loop
      vertex 12.7704 -5.04702 6
      vertex 15.422 -2.39537 0
      vertex 15.422 -2.39537 6
    endloop
  endfacet
  facet normal 0.707107 -0.707107 0
    outer loop
      vertex 15.422 -2.39537 0
      vertex 12.7704 -5.04702 6
      vertex 12.7704 -5.04702 0
    endloop
  endfacet
  facet normal 0.707107 0.707107 0
    outer loop
      vertex 15 -0.382359 7
      vertex 7.02513 7.59251 0
      vertex 7.02513 7.59251 7
    endloop
  endfacet
  facet normal 0.707107 0.707107 0
    outer loop
      vertex 7.02513 7.59251 0
      vertex 15 -0.382359 7
      vertex 15 -0.382359 0
    endloop
  endfacet
  facet normal 0.707108 0.707106 0
    outer loop
      vertex 16.2175 -1.59987 6
      vertex 16 -1.38236 0
      vertex 16 -1.38236 6
    endloop
  endfacet
  facet normal 0.707108 0.707106 0
    outer loop
      vertex 16 -1.38236 0
      vertex 16.2175 -1.59987 6
      vertex 16.2175 -1.59987 0
    endloop
  endfacet
  facet normal -0.707107 -0.707107 0
    outer loop
      vertex 11.9749 -5.84251 0
      vertex 2.78249 3.34987 7
      vertex 2.78249 3.34987 0
    endloop
  endfacet
  facet normal -0.707107 -0.707107 0
    outer loop
      vertex 2.78249 3.34987 7
      vertex 11.9749 -5.84251 0
      vertex 11.9749 -5.84251 7
    endloop
  endfacet
  facet normal 0.707107 -0.707107 0
    outer loop
      vertex 4.28509 3.43826 0
      vertex 6.93674 6.08991 6
      vertex 4.28509 3.43826 6
    endloop
  endfacet
  facet normal 0.707107 -0.707107 0
    outer loop
      vertex 6.93674 6.08991 6
      vertex 4.28509 3.43826 0
      vertex 6.93674 6.08991 0
    endloop
  endfacet
  facet normal -0.707107 0.707107 0
    outer loop
      vertex 12.0633 -4.33991 0
      vertex 14.7149 -1.68826 6
      vertex 14.7149 -1.68826 0
    endloop
  endfacet
  facet normal -0.707107 0.707107 0
    outer loop
      vertex 14.7149 -1.68826 6
      vertex 12.0633 -4.33991 0
      vertex 12.0633 -4.33991 6
    endloop
  endfacet
endsolid OpenSCAD_Model
